<svg width="694" height="342" viewBox="0 0 694 342" fill="none" xmlns="http://www.w3.org/2000/svg">
<g clip-path="url(#clip0_1_2)">
<path d="M693.662 0H0V341.341H693.662V0Z" fill="#F5F6FF"/>
<path d="M391.144 30.1705H47.8562C43.7935 30.1705 40.5 33.5363 40.5 37.6881V303.653C40.5 307.805 43.7935 311.171 47.8562 311.171H391.144C395.207 311.171 398.5 307.805 398.5 303.653V37.6881C398.5 33.5363 395.207 30.1705 391.144 30.1705Z" fill="white"/>
<path d="M80.5661 70V83.0909H78.7507L72.0966 73.4901H71.9751V83.0909H70V70H71.8281L78.4886 79.6136H78.6101V70H80.5661Z" fill="#3B57FF"/>
<path d="M87.5254 83.2891C84.6298 83.2891 82.8528 81.2947 82.8528 78.2457C82.8528 75.2287 84.6554 73.1449 87.3912 73.1449C89.6156 73.1449 91.7377 74.532 91.7377 78.0795V78.7571H84.7576C84.8088 80.6491 85.9082 81.7102 87.5446 81.7102C88.6312 81.7102 89.4622 81.2372 89.8074 80.3104L91.6163 80.6364C91.1816 82.2344 89.6667 83.2891 87.5254 83.2891ZM84.764 77.3253H89.8649C89.8585 75.8232 88.8869 74.7237 87.4039 74.7237C85.8507 74.7237 84.8407 75.9318 84.764 77.3253Z" fill="#3B57FF"/>
<path d="M101.216 75.6697L99.4833 75.9766C99.2596 75.3182 98.7099 74.6598 97.521 74.6598C96.4343 74.6598 95.6161 75.1967 95.6225 75.951C95.6161 76.6158 96.0827 76.9801 97.163 77.2358L98.7227 77.5938C100.525 78.0092 101.407 78.8658 101.407 80.2528C101.407 82.0298 99.7646 83.2891 97.3931 83.2891C95.1879 83.2891 93.7433 82.3111 93.4237 80.5724L95.271 80.2912C95.5011 81.2564 96.2362 81.7486 97.3803 81.7486C98.6332 81.7486 99.445 81.1541 99.445 80.3935C99.445 79.7798 99.0039 79.358 98.0579 79.147L96.396 78.7827C94.555 78.3736 93.7113 77.4467 93.7113 76.0533C93.7113 74.3146 95.2837 73.1449 97.5018 73.1449C99.6239 73.1449 100.819 74.142 101.216 75.6697Z" fill="#3B57FF"/>
<path d="M108.092 73.2727V74.8068H106.078V80.2081C106.078 81.3139 106.634 81.5185 107.254 81.5185C107.561 81.5185 107.798 81.4609 107.926 81.4354L108.271 83.0142C108.047 83.0973 107.638 83.2124 107.031 83.2188C105.522 83.2507 104.161 82.3878 104.167 80.6044V74.8068H102.729V73.2727H104.167V70.9205H106.078V73.2727H108.092Z" fill="#3B57FF"/>
<path d="M114.332 83.2891C111.436 83.2891 109.659 81.2947 109.659 78.2457C109.659 75.2287 111.462 73.1449 114.198 73.1449C116.422 73.1449 118.544 74.532 118.544 78.0795V78.7571H111.564C111.615 80.6491 112.715 81.7102 114.351 81.7102C115.438 81.7102 116.269 81.2372 116.614 80.3104L118.423 80.6364C117.988 82.2344 116.473 83.2891 114.332 83.2891ZM111.571 77.3253H116.672C116.665 75.8232 115.694 74.7237 114.211 74.7237C112.657 74.7237 111.647 75.9318 111.571 77.3253Z" fill="#3B57FF"/>
<path d="M124.34 83.2827C121.956 83.2827 120.237 81.3778 120.237 78.201C120.237 75.0178 121.982 73.1449 124.353 73.1449C126.181 73.1449 126.833 74.2571 127.178 74.8643H127.294V70H129.205V83.0909H127.338V81.5632H127.178C126.833 82.1896 126.13 83.2827 124.34 83.2827ZM124.762 81.6527C126.411 81.6527 127.325 80.2464 127.325 78.1818C127.325 76.13 126.431 74.7685 124.762 74.7685C123.036 74.7685 122.167 76.2322 122.167 78.1818C122.167 80.1506 123.056 81.6527 124.762 81.6527Z" fill="#3B57FF"/>
<path d="M136.85 83.0909V70H138.825V81.3906H144.757V83.0909H136.85Z" fill="#3B57FF"/>
<path d="M149.714 83.3082C147.847 83.3082 146.396 82.2472 146.396 80.3168C146.396 78.0859 148.301 77.6001 150.161 77.3828C151.925 77.1783 152.641 77.1911 152.641 76.4943V76.4496C152.641 75.3374 152.008 74.6918 150.775 74.6918C149.49 74.6918 148.774 75.3629 148.493 76.0597L146.697 75.6506C147.336 73.8608 148.972 73.1449 150.749 73.1449C152.309 73.1449 154.559 73.7138 154.559 76.571V83.0909H152.692V81.7486H152.616C152.251 82.4837 151.337 83.3082 149.714 83.3082ZM150.129 81.7741C151.721 81.7741 152.648 80.7131 152.648 79.5497V78.2841C152.373 78.5589 150.903 78.7251 150.282 78.8082C149.177 78.9553 148.269 79.3196 148.269 80.3423C148.269 81.2884 149.049 81.7741 150.129 81.7741Z" fill="#3B57FF"/>
<path d="M157.961 86.7727C157.386 86.7727 156.887 86.6641 156.657 86.5618L157.117 84.9957C158.165 85.2834 158.849 85.1747 159.335 83.8707L159.572 83.2188L155.979 73.2727H158.025L160.511 80.892H160.614L163.1 73.2727H165.152L161.106 84.4013C160.537 85.9482 159.54 86.7727 157.961 86.7727Z" fill="#3B57FF"/>
<path d="M170.732 83.2891C167.964 83.2891 166.156 81.2628 166.156 78.2266C166.156 75.1712 167.964 73.1449 170.732 73.1449C173.5 73.1449 175.309 75.1712 175.309 78.2266C175.309 81.2628 173.5 83.2891 170.732 83.2891ZM170.739 81.6847C172.535 81.6847 173.379 80.1058 173.379 78.2202C173.379 76.3409 172.535 74.7429 170.739 74.7429C168.93 74.7429 168.086 76.3409 168.086 78.2202C168.086 80.1058 168.93 81.6847 170.739 81.6847Z" fill="#3B57FF"/>
<path d="M183.662 79.0192V73.2727H185.579V83.0909H183.7V81.3906H183.598C183.144 82.4389 182.14 83.2188 180.664 83.2188C178.778 83.2188 177.442 81.9531 177.442 79.5178V73.2727H179.354V79.2876C179.354 80.6236 180.172 81.4801 181.354 81.4801C182.428 81.4801 183.668 80.6875 183.662 79.0192Z" fill="#3B57FF"/>
<path d="M192.73 73.2727V74.8068H190.717V80.2081C190.717 81.3139 191.273 81.5185 191.893 81.5185C192.2 81.5185 192.436 81.4609 192.564 81.4354L192.909 83.0142C192.686 83.0973 192.277 83.2124 191.669 83.2188C190.161 83.2507 188.799 82.3878 188.806 80.6044V74.8068H187.368V73.2727H188.806V70.9205H190.717V73.2727H192.73Z" fill="#3B57FF"/>
<path d="M70 106.523V97.0682H71.1449V105.507H75.5398V106.523H70Z" fill="#3B57FF"/>
<path d="M80.0455 106.67C78.125 106.67 76.8324 105.212 76.8324 103.014C76.8324 100.798 78.125 99.3395 80.0455 99.3395C81.9659 99.3395 83.2585 100.798 83.2585 103.014C83.2585 105.212 81.9659 106.67 80.0455 106.67ZM80.0455 105.692C81.5043 105.692 82.169 104.436 82.169 103.014C82.169 101.592 81.5043 100.318 80.0455 100.318C78.5866 100.318 77.9219 101.592 77.9219 103.014C77.9219 104.436 78.5866 105.692 80.0455 105.692Z" fill="#3B57FF"/>
<path d="M84.9216 106.523V99.4318H85.9742V100.503H86.048C86.3066 99.8011 87.0452 99.321 87.8946 99.321C88.0562 99.321 88.3424 99.3302 88.4671 99.3395V100.447C88.3932 100.429 88.0931 100.374 87.8023 100.374C86.7682 100.374 86.0111 101.075 86.0111 102.035V106.523H84.9216Z" fill="#3B57FF"/>
<path d="M92.5157 106.67C90.466 106.67 89.2103 105.212 89.2103 103.033C89.2103 100.854 90.4845 99.3395 92.4049 99.3395C93.8822 99.3395 95.4518 100.244 95.4518 102.885V103.347H90.3044C90.3552 104.865 91.237 105.692 92.5157 105.692C93.3698 105.692 94.0115 105.322 94.2884 104.584L95.341 104.879C95.0086 105.95 93.9561 106.67 92.5157 106.67ZM90.3044 102.405H94.3438C94.3438 101.205 93.5867 100.318 92.4049 100.318C91.1585 100.318 90.3783 101.301 90.3044 102.405Z" fill="#3B57FF"/>
<path d="M97.1091 106.523V99.4318H98.1617V100.54H98.254C98.5495 99.7826 99.2327 99.3395 100.156 99.3395C101.089 99.3395 101.707 99.7826 102.058 100.54H102.132C102.497 99.8057 103.24 99.3395 104.255 99.3395C105.52 99.3395 106.416 100.11 106.416 101.777V106.523H105.326V101.777C105.326 100.729 104.662 100.318 103.886 100.318C102.889 100.318 102.316 100.992 102.316 101.906V106.523H101.209V101.666C101.209 100.858 100.631 100.318 99.8051 100.318C98.9557 100.318 98.1986 101.052 98.1986 102.091V106.523H97.1091Z" fill="#3B57FF"/>
<path d="M112.064 106.523V99.4318H113.154V106.523H112.064ZM112.618 98.25C112.193 98.25 111.843 97.9176 111.843 97.5113C111.843 97.1051 112.193 96.7727 112.618 96.7727C113.043 96.7727 113.394 97.1051 113.394 97.5113C113.394 97.9176 113.043 98.25 112.618 98.25Z" fill="#3B57FF"/>
<path d="M115.149 109.182V99.4318H116.202V100.558H116.331C116.571 100.189 116.996 99.3395 118.381 99.3395C120.172 99.3395 121.409 100.761 121.409 102.996C121.409 105.249 120.172 106.67 118.399 106.67C117.033 106.67 116.571 105.821 116.331 105.433H116.239V109.182H115.149ZM116.22 102.977C116.22 104.584 116.94 105.692 118.251 105.692C119.618 105.692 120.32 104.491 120.32 102.977C120.32 101.482 119.636 100.318 118.251 100.318C116.922 100.318 116.22 101.389 116.22 102.977Z" fill="#3B57FF"/>
<path d="M128.094 101.02L127.115 101.297C126.926 100.808 126.533 100.281 125.582 100.281C124.714 100.281 124.068 100.724 124.068 101.334C124.068 101.879 124.447 102.16 125.287 102.368L126.339 102.626C127.604 102.936 128.223 103.559 128.223 104.547C128.223 105.77 127.101 106.67 125.453 106.67C124.004 106.67 123.011 106.029 122.757 104.824L123.791 104.565C123.985 105.327 124.544 105.71 125.435 105.71C126.45 105.71 127.097 105.212 127.097 104.602C127.097 104.113 126.76 103.771 126.044 103.605L124.862 103.328C123.56 103.023 122.979 102.368 122.979 101.389C122.979 100.189 124.087 99.3395 125.582 99.3395C126.986 99.3395 127.752 100.013 128.094 101.02Z" fill="#3B57FF"/>
<path d="M134.332 103.624V99.4318H135.421V106.523H134.332V105.322H134.258C133.926 106.043 133.224 106.615 132.153 106.615C130.823 106.615 129.863 105.747 129.863 103.937V99.4318H130.953V103.864C130.953 104.898 131.599 105.562 132.504 105.562C133.316 105.562 134.332 104.953 134.332 103.624Z" fill="#3B57FF"/>
<path d="M137.417 106.523V99.4318H138.469V100.54H138.562C138.857 99.7826 139.54 99.3395 140.464 99.3395C141.396 99.3395 142.015 99.7826 142.366 100.54H142.439C142.804 99.8057 143.547 99.3395 144.563 99.3395C145.828 99.3395 146.724 100.11 146.724 101.777V106.523H145.634V101.777C145.634 100.729 144.969 100.318 144.194 100.318C143.197 100.318 142.624 100.992 142.624 101.906V106.523H141.516V101.666C141.516 100.858 140.939 100.318 140.113 100.318C139.263 100.318 138.506 101.052 138.506 102.091V106.523H137.417Z" fill="#3B57FF"/>
<path d="M155.049 106.67C153.277 106.67 152.039 105.249 152.039 102.996C152.039 100.761 153.277 99.3395 155.068 99.3395C156.453 99.3395 156.877 100.189 157.118 100.558H157.21V97.0682H158.299V106.523H157.247V105.433H157.118C156.877 105.821 156.416 106.67 155.049 106.67ZM155.197 105.692C156.508 105.692 157.228 104.584 157.228 102.977C157.228 101.389 156.527 100.318 155.197 100.318C153.812 100.318 153.129 101.482 153.129 102.977C153.129 104.491 153.831 105.692 155.197 105.692Z" fill="#3B57FF"/>
<path d="M163.327 106.67C161.406 106.67 160.114 105.212 160.114 103.014C160.114 100.798 161.406 99.3395 163.327 99.3395C165.247 99.3395 166.54 100.798 166.54 103.014C166.54 105.212 165.247 106.67 163.327 106.67ZM163.327 105.692C164.786 105.692 165.45 104.436 165.45 103.014C165.45 101.592 164.786 100.318 163.327 100.318C161.868 100.318 161.203 101.592 161.203 103.014C161.203 104.436 161.868 105.692 163.327 105.692Z" fill="#3B57FF"/>
<path d="M169.292 97.0682V106.523H168.203V97.0682H169.292Z" fill="#3B57FF"/>
<path d="M174.169 106.67C172.248 106.67 170.955 105.212 170.955 103.014C170.955 100.798 172.248 99.3395 174.169 99.3395C176.089 99.3395 177.382 100.798 177.382 103.014C177.382 105.212 176.089 106.67 174.169 106.67ZM174.169 105.692C175.627 105.692 176.292 104.436 176.292 103.014C176.292 101.592 175.627 100.318 174.169 100.318C172.71 100.318 172.045 101.592 172.045 103.014C172.045 104.436 172.71 105.692 174.169 105.692Z" fill="#3B57FF"/>
<path d="M179.045 106.523V99.4318H180.097V100.503H180.171C180.43 99.8011 181.168 99.321 182.018 99.321C182.179 99.321 182.465 99.3302 182.59 99.3395V100.447C182.516 100.429 182.216 100.374 181.925 100.374C180.891 100.374 180.134 101.075 180.134 102.035V106.523H179.045Z" fill="#3B57FF"/>
<path d="M192.561 101.02L191.582 101.297C191.393 100.808 191 100.281 190.049 100.281C189.181 100.281 188.535 100.724 188.535 101.334C188.535 101.879 188.914 102.16 189.754 102.368L190.806 102.626C192.071 102.936 192.69 103.559 192.69 104.547C192.69 105.77 191.568 106.67 189.92 106.67C188.47 106.67 187.478 106.029 187.224 104.824L188.258 104.565C188.452 105.327 189.01 105.71 189.901 105.71C190.917 105.71 191.563 105.212 191.563 104.602C191.563 104.113 191.226 103.771 190.511 103.605L189.329 103.328C188.027 103.023 187.445 102.368 187.445 101.389C187.445 100.189 188.553 99.3395 190.049 99.3395C191.453 99.3395 192.219 100.013 192.561 101.02Z" fill="#3B57FF"/>
<path d="M194.33 106.523V99.4318H195.419V106.523H194.33ZM194.884 98.25C194.459 98.25 194.108 97.9176 194.108 97.5113C194.108 97.1051 194.459 96.7727 194.884 96.7727C195.309 96.7727 195.659 97.1051 195.659 97.5113C195.659 97.9176 195.309 98.25 194.884 98.25Z" fill="#3B57FF"/>
<path d="M200.499 99.4318V100.355H198.984V104.491C198.984 105.415 199.446 105.562 199.926 105.562C200.166 105.562 200.314 105.526 200.406 105.507L200.628 106.486C200.48 106.541 200.222 106.615 199.815 106.615C198.892 106.615 197.895 106.024 197.895 104.787V100.355H196.824V99.4318H197.895V97.7329H198.984V99.4318H200.499Z" fill="#3B57FF"/>
<path d="M207.88 106.689C206.532 106.689 205.461 105.895 205.461 104.51C205.461 102.885 206.897 102.594 208.213 102.423C209.505 102.257 210.041 102.303 210.041 101.777V101.74C210.041 100.831 209.547 100.3 208.545 100.3C207.506 100.3 206.939 100.854 206.699 101.371L205.664 101.001C206.218 99.7088 207.437 99.3395 208.508 99.3395C209.413 99.3395 211.13 99.598 211.13 101.851V106.523H210.041V105.562H209.985C209.764 106.024 209.118 106.689 207.88 106.689ZM208.047 105.71C209.339 105.71 210.041 104.842 210.041 103.956V102.959C209.856 103.18 208.619 103.31 208.157 103.365C207.308 103.476 206.551 103.734 206.551 104.565C206.551 105.322 207.179 105.71 208.047 105.71Z" fill="#3B57FF"/>
<path d="M213.119 106.523V99.4318H214.171V100.54H214.264C214.559 99.7826 215.242 99.3395 216.166 99.3395C217.098 99.3395 217.717 99.7826 218.068 100.54H218.142C218.506 99.8057 219.25 99.3395 220.265 99.3395C221.53 99.3395 222.426 100.11 222.426 101.777V106.523H221.336V101.777C221.336 100.729 220.671 100.318 219.896 100.318C218.899 100.318 218.326 100.992 218.326 101.906V106.523H217.218V101.666C217.218 100.858 216.641 100.318 215.815 100.318C214.965 100.318 214.208 101.052 214.208 102.091V106.523H213.119Z" fill="#3B57FF"/>
<path d="M227.391 106.67C225.341 106.67 224.085 105.212 224.085 103.033C224.085 100.854 225.359 99.3395 227.28 99.3395C228.757 99.3395 230.327 100.244 230.327 102.885V103.347H225.179C225.23 104.865 226.112 105.692 227.391 105.692C228.245 105.692 228.886 105.322 229.163 104.584L230.216 104.879C229.884 105.95 228.831 106.67 227.391 106.67ZM225.179 102.405H229.219C229.219 101.205 228.462 100.318 227.28 100.318C226.033 100.318 225.253 101.301 225.179 102.405Z" fill="#3B57FF"/>
<path d="M235.068 99.4318V100.355H233.554V104.491C233.554 105.415 234.015 105.562 234.495 105.562C234.736 105.562 234.883 105.526 234.976 105.507L235.197 106.486C235.049 106.541 234.791 106.615 234.385 106.615C233.461 106.615 232.464 106.024 232.464 104.787V100.355H231.393V99.4318H232.464V97.7329H233.554V99.4318H235.068Z" fill="#3B57FF"/>
<path d="M237.501 106.597C237.044 106.597 236.67 106.223 236.67 105.766C236.67 105.309 237.044 104.935 237.501 104.935C237.958 104.935 238.332 105.309 238.332 105.766C238.332 106.223 237.958 106.597 237.501 106.597Z" fill="#3B57FF"/>
<path d="M241.081 106.597C240.624 106.597 240.25 106.223 240.25 105.766C240.25 105.309 240.624 104.935 241.081 104.935C241.538 104.935 241.912 105.309 241.912 105.766C241.912 106.223 241.538 106.597 241.081 106.597Z" fill="#3B57FF"/>
<path d="M244.661 106.597C244.204 106.597 243.83 106.223 243.83 105.766C243.83 105.309 244.204 104.935 244.661 104.935C245.118 104.935 245.492 105.309 245.492 105.766C245.492 106.223 245.118 106.597 244.661 106.597Z" fill="#3B57FF"/>
<path d="M78 169.682H151.606V206.303H70.5V177.182C70.5 173.04 73.8579 169.682 78 169.682Z" fill="#F5F6FF"/>
<path d="M96 184.198V183.182H103.091V184.198H100.118V192.636H98.973V184.198H96Z" fill="#3B57FF"/>
<path d="M105.832 192.803C104.484 192.803 103.413 192.009 103.413 190.624C103.413 188.999 104.849 188.708 106.164 188.537C107.457 188.371 107.992 188.417 107.992 187.891V187.854C107.992 186.944 107.498 186.413 106.497 186.413C105.458 186.413 104.89 186.967 104.65 187.484L103.616 187.115C104.17 185.823 105.389 185.453 106.46 185.453C107.365 185.453 109.082 185.712 109.082 187.965V192.636H107.992V191.676H107.937C107.715 192.138 107.069 192.803 105.832 192.803ZM105.998 191.824C107.291 191.824 107.992 190.956 107.992 190.07V189.073C107.808 189.294 106.571 189.423 106.109 189.479C105.259 189.59 104.502 189.848 104.502 190.679C104.502 191.436 105.13 191.824 105.998 191.824Z" fill="#3B57FF"/>
<path d="M111.218 192.636V183.182H112.308V186.672H112.4C112.64 186.303 113.065 185.453 114.45 185.453C116.241 185.453 117.478 186.875 117.478 189.109C117.478 191.362 116.241 192.784 114.468 192.784C113.102 192.784 112.64 191.935 112.4 191.547H112.271V192.636H111.218ZM112.289 189.091C112.289 190.698 113.009 191.805 114.32 191.805C115.687 191.805 116.389 190.605 116.389 189.091C116.389 187.595 115.705 186.432 114.32 186.432C112.991 186.432 112.289 187.503 112.289 189.091Z" fill="#3B57FF"/>
<path d="M126.106 183.182V192.636H124.961V184.382H124.906L122.598 185.915V184.751L124.961 183.182H126.106Z" fill="#3B57FF"/>
<path d="M78 169.682H151.606V206.303H70.5V177.182C70.5 173.04 73.8579 169.682 78 169.682Z" stroke="#95B1FF"/>
<path d="M151.606 169.682H235.353V206.432H151.606V169.682Z" fill="#F5F6FF"/>
<path d="M177.106 184.327V183.311H184.197V184.327H181.224V192.766H180.079V184.327H177.106Z" fill="#3B57FF"/>
<path d="M186.938 192.932C185.59 192.932 184.519 192.138 184.519 190.753C184.519 189.128 185.955 188.837 187.271 188.666C188.563 188.5 189.099 188.546 189.099 188.02V187.983C189.099 187.074 188.605 186.543 187.603 186.543C186.564 186.543 185.997 187.097 185.757 187.614L184.722 187.244C185.276 185.952 186.495 185.582 187.566 185.582C188.471 185.582 190.188 185.841 190.188 188.094V192.766H189.099V191.805H189.044C188.822 192.267 188.176 192.932 186.938 192.932ZM187.105 191.953C188.397 191.953 189.099 191.085 189.099 190.199V189.202C188.914 189.423 187.677 189.553 187.215 189.608C186.366 189.719 185.609 189.977 185.609 190.808C185.609 191.565 186.237 191.953 187.105 191.953Z" fill="#3B57FF"/>
<path d="M192.325 192.766V183.311H193.414V186.801H193.506C193.747 186.432 194.171 185.582 195.556 185.582C197.347 185.582 198.585 187.004 198.585 189.239C198.585 191.492 197.347 192.913 195.575 192.913C194.208 192.913 193.747 192.064 193.506 191.676H193.377V192.766H192.325ZM193.396 189.22C193.396 190.827 194.116 191.935 195.427 191.935C196.793 191.935 197.495 190.734 197.495 189.22C197.495 187.724 196.812 186.561 195.427 186.561C194.097 186.561 193.396 187.632 193.396 189.22Z" fill="#3B57FF"/>
<path d="M203.889 192.766V191.935L207.01 188.519C208.104 187.323 208.616 186.677 208.616 185.804C208.616 184.807 207.831 184.179 206.807 184.179C205.712 184.179 205.015 184.895 205.015 185.97H203.926C203.926 184.308 205.186 183.182 206.843 183.182C208.505 183.182 209.687 184.345 209.687 185.804C209.687 186.852 209.207 187.664 207.582 189.405L205.459 191.676V191.75H209.853V192.766H203.889Z" fill="#3B57FF"/>
<path d="M151.606 169.682H235.353V206.432H151.606V169.682Z" stroke="#95B1FF"/>
<path d="M235.353 169.682H312.025C316.167 169.682 319.525 173.04 319.525 177.182V206.432H235.353V169.682Z" fill="#F5F6FF"/>
<path d="M260.853 184.327V183.311H267.944V184.327H264.971V192.766H263.826V184.327H260.853Z" fill="#3B57FF"/>
<path d="M270.685 192.932C269.337 192.932 268.266 192.138 268.266 190.753C268.266 189.128 269.702 188.837 271.018 188.666C272.31 188.5 272.846 188.546 272.846 188.02V187.983C272.846 187.074 272.352 186.543 271.35 186.543C270.311 186.543 269.743 187.097 269.503 187.614L268.469 187.244C269.023 185.952 270.242 185.582 271.313 185.582C272.218 185.582 273.935 185.841 273.935 188.094V192.766H272.846V191.805H272.79C272.569 192.267 271.922 192.932 270.685 192.932ZM270.851 191.953C272.144 191.953 272.846 191.085 272.846 190.199V189.202C272.661 189.423 271.424 189.553 270.962 189.608C270.113 189.719 269.356 189.977 269.356 190.808C269.356 191.565 269.984 191.953 270.851 191.953Z" fill="#3B57FF"/>
<path d="M276.071 192.766V183.311H277.161V186.801H277.253C277.493 186.432 277.918 185.582 279.303 185.582C281.094 185.582 282.331 187.004 282.331 189.239C282.331 191.492 281.094 192.913 279.321 192.913C277.955 192.913 277.493 192.064 277.253 191.676H277.124V192.766H276.071ZM277.143 189.22C277.143 190.827 277.863 191.935 279.174 191.935C280.54 191.935 281.242 190.734 281.242 189.22C281.242 187.724 280.559 186.561 279.174 186.561C277.844 186.561 277.143 187.632 277.143 189.22Z" fill="#3B57FF"/>
<path d="M290.83 192.895C288.998 192.895 287.687 191.889 287.617 190.402H288.781C288.85 191.316 289.718 191.879 290.812 191.879C292.026 191.879 292.899 191.201 292.899 190.199C292.899 189.156 292.1 188.426 290.664 188.426H289.907V187.411H290.664C291.786 187.411 292.566 186.764 292.566 185.767C292.566 184.812 291.892 184.179 290.849 184.179C289.866 184.179 288.97 184.733 288.928 185.675H287.82C287.876 184.188 289.233 183.182 290.867 183.182C292.617 183.182 293.674 184.373 293.674 185.712C293.674 186.778 293.079 187.563 292.123 187.854V187.928C293.314 188.126 294.025 188.999 294.025 190.199C294.025 191.745 292.663 192.895 290.83 192.895Z" fill="#3B57FF"/>
<path d="M235.353 169.682H312.025C316.167 169.682 319.525 173.04 319.525 177.182V206.432H235.353V169.682Z" stroke="#95B1FF"/>
<path d="M70.5 205.432H368C372.142 205.432 375.5 208.79 375.5 212.932V263.341C375.5 267.483 372.142 270.841 368 270.841H78C73.8579 270.841 70.5 267.483 70.5 263.341V205.432Z" fill="#F5F6FF"/>
<path d="M135.254 241.682V232.227H136.399V240.666H140.794V241.682H135.254Z" fill="#4767FE"/>
<path d="M145.3 241.83C143.379 241.83 142.087 240.371 142.087 238.173C142.087 235.957 143.379 234.499 145.3 234.499C147.22 234.499 148.513 235.957 148.513 238.173C148.513 240.371 147.22 241.83 145.3 241.83ZM145.3 240.851C146.758 240.851 147.423 239.595 147.423 238.173C147.423 236.751 146.758 235.477 145.3 235.477C143.841 235.477 143.176 236.751 143.176 238.173C143.176 239.595 143.841 240.851 145.3 240.851Z" fill="#4767FE"/>
<path d="M150.176 241.682V234.591H151.228V235.662H151.302C151.561 234.96 152.299 234.48 153.149 234.48C153.31 234.48 153.597 234.489 153.721 234.499V235.607C153.647 235.588 153.347 235.533 153.056 235.533C152.022 235.533 151.265 236.234 151.265 237.195V241.682H150.176Z" fill="#4767FE"/>
<path d="M157.77 241.83C155.72 241.83 154.464 240.371 154.464 238.192C154.464 236.013 155.739 234.499 157.659 234.499C159.136 234.499 160.706 235.403 160.706 238.044V238.506H155.559C155.609 240.025 156.491 240.851 157.77 240.851C158.624 240.851 159.266 240.482 159.543 239.743L160.595 240.038C160.263 241.109 159.21 241.83 157.77 241.83ZM155.559 237.564H159.598C159.598 236.364 158.841 235.477 157.659 235.477C156.413 235.477 155.632 236.461 155.559 237.564Z" fill="#4767FE"/>
<path d="M162.363 241.682V234.591H163.416V235.699H163.508C163.804 234.942 164.487 234.499 165.41 234.499C166.343 234.499 166.961 234.942 167.312 235.699H167.386C167.751 234.965 168.494 234.499 169.51 234.499C170.774 234.499 171.67 235.27 171.67 236.936V241.682H170.581V236.936C170.581 235.888 169.916 235.477 169.14 235.477C168.143 235.477 167.571 236.151 167.571 237.065V241.682H166.463V236.825C166.463 236.017 165.886 235.477 165.059 235.477C164.21 235.477 163.453 236.211 163.453 237.25V241.682H162.363Z" fill="#4767FE"/>
<path d="M177.318 241.682V234.591H178.408V241.682H177.318ZM177.872 233.409C177.448 233.409 177.097 233.077 177.097 232.671C177.097 232.264 177.448 231.932 177.872 231.932C178.297 231.932 178.648 232.264 178.648 232.671C178.648 233.077 178.297 233.409 177.872 233.409Z" fill="#4767FE"/>
<path d="M180.403 244.341V234.591H181.456V235.717H181.585C181.825 235.348 182.25 234.499 183.635 234.499C185.426 234.499 186.663 235.921 186.663 238.155C186.663 240.408 185.426 241.83 183.653 241.83C182.287 241.83 181.825 240.98 181.585 240.592H181.493V244.341H180.403ZM181.474 238.136C181.474 239.743 182.194 240.851 183.506 240.851C184.872 240.851 185.574 239.651 185.574 238.136C185.574 236.641 184.891 235.477 183.506 235.477C182.176 235.477 181.474 236.548 181.474 238.136Z" fill="#4767FE"/>
<path d="M193.348 236.179L192.369 236.456C192.18 235.967 191.788 235.44 190.837 235.44C189.969 235.44 189.322 235.884 189.322 236.493C189.322 237.038 189.701 237.319 190.541 237.527L191.594 237.786C192.859 238.095 193.477 238.718 193.477 239.706C193.477 240.929 192.355 241.83 190.707 241.83C189.258 241.83 188.265 241.188 188.011 239.983L189.045 239.724C189.239 240.486 189.798 240.869 190.689 240.869C191.704 240.869 192.351 240.371 192.351 239.761C192.351 239.272 192.014 238.93 191.298 238.764L190.116 238.487C188.815 238.183 188.233 237.527 188.233 236.548C188.233 235.348 189.341 234.499 190.837 234.499C192.24 234.499 193.006 235.173 193.348 236.179Z" fill="#4767FE"/>
<path d="M199.586 238.783V234.591H200.675V241.682H199.586V240.482H199.512C199.18 241.202 198.478 241.774 197.407 241.774C196.077 241.774 195.117 240.906 195.117 239.097V234.591H196.207V239.023C196.207 240.057 196.853 240.722 197.758 240.722C198.57 240.722 199.586 240.112 199.586 238.783Z" fill="#4767FE"/>
<path d="M202.671 241.682V234.591H203.723V235.699H203.816C204.111 234.942 204.794 234.499 205.718 234.499C206.65 234.499 207.269 234.942 207.62 235.699H207.694C208.058 234.965 208.802 234.499 209.817 234.499C211.082 234.499 211.978 235.27 211.978 236.936V241.682H210.888V236.936C210.888 235.888 210.223 235.477 209.448 235.477C208.451 235.477 207.878 236.151 207.878 237.065V241.682H206.77V236.825C206.77 236.017 206.193 235.477 205.367 235.477C204.517 235.477 203.76 236.211 203.76 237.25V241.682H202.671Z" fill="#4767FE"/>
<path d="M220.304 241.83C218.531 241.83 217.294 240.408 217.294 238.155C217.294 235.921 218.531 234.499 220.322 234.499C221.707 234.499 222.132 235.348 222.372 235.717H222.464V232.227H223.554V241.682H222.501V240.592H222.372C222.132 240.98 221.67 241.83 220.304 241.83ZM220.451 240.851C221.762 240.851 222.482 239.743 222.482 238.136C222.482 236.548 221.781 235.477 220.451 235.477C219.066 235.477 218.383 236.641 218.383 238.136C218.383 239.651 219.085 240.851 220.451 240.851Z" fill="#4767FE"/>
<path d="M228.581 241.83C226.66 241.83 225.368 240.371 225.368 238.173C225.368 235.957 226.66 234.499 228.581 234.499C230.501 234.499 231.794 235.957 231.794 238.173C231.794 240.371 230.501 241.83 228.581 241.83ZM228.581 240.851C230.04 240.851 230.704 239.595 230.704 238.173C230.704 236.751 230.04 235.477 228.581 235.477C227.122 235.477 226.457 236.751 226.457 238.173C226.457 239.595 227.122 240.851 228.581 240.851Z" fill="#4767FE"/>
<path d="M234.547 232.227V241.682H233.457V232.227H234.547Z" fill="#4767FE"/>
<path d="M239.423 241.83C237.502 241.83 236.21 240.371 236.21 238.173C236.21 235.957 237.502 234.499 239.423 234.499C241.343 234.499 242.636 235.957 242.636 238.173C242.636 240.371 241.343 241.83 239.423 241.83ZM239.423 240.851C240.881 240.851 241.546 239.595 241.546 238.173C241.546 236.751 240.881 235.477 239.423 235.477C237.964 235.477 237.299 236.751 237.299 238.173C237.299 239.595 237.964 240.851 239.423 240.851Z" fill="#4767FE"/>
<path d="M244.299 241.682V234.591H245.351V235.662H245.425C245.684 234.96 246.422 234.48 247.272 234.48C247.433 234.48 247.72 234.489 247.844 234.499V235.607C247.77 235.588 247.47 235.533 247.179 235.533C246.145 235.533 245.388 236.234 245.388 237.195V241.682H244.299Z" fill="#4767FE"/>
<path d="M257.815 236.179L256.836 236.456C256.647 235.967 256.254 235.44 255.303 235.44C254.435 235.44 253.789 235.884 253.789 236.493C253.789 237.038 254.168 237.319 255.008 237.527L256.06 237.786C257.325 238.095 257.944 238.718 257.944 239.706C257.944 240.929 256.822 241.83 255.174 241.83C253.724 241.83 252.732 241.188 252.478 239.983L253.512 239.724C253.706 240.486 254.265 240.869 255.156 240.869C256.171 240.869 256.818 240.371 256.818 239.761C256.818 239.272 256.481 238.93 255.765 238.764L254.583 238.487C253.281 238.183 252.7 237.527 252.7 236.548C252.7 235.348 253.808 234.499 255.303 234.499C256.707 234.499 257.473 235.173 257.815 236.179Z" fill="#4767FE"/>
<path d="M259.584 241.682V234.591H260.673V241.682H259.584ZM260.138 233.409C259.713 233.409 259.362 233.077 259.362 232.671C259.362 232.264 259.713 231.932 260.138 231.932C260.563 231.932 260.914 232.264 260.914 232.671C260.914 233.077 260.563 233.409 260.138 233.409Z" fill="#4767FE"/>
<path d="M265.753 234.591V235.514H264.239V239.651C264.239 240.574 264.7 240.722 265.18 240.722C265.42 240.722 265.568 240.685 265.66 240.666L265.882 241.645C265.734 241.7 265.476 241.774 265.069 241.774C264.146 241.774 263.149 241.183 263.149 239.946V235.514H262.078V234.591H263.149V232.892H264.239V234.591H265.753Z" fill="#4767FE"/>
<path d="M273.134 241.848C271.786 241.848 270.715 241.054 270.715 239.669C270.715 238.044 272.151 237.753 273.467 237.582C274.759 237.416 275.295 237.462 275.295 236.936V236.899C275.295 235.99 274.801 235.459 273.799 235.459C272.761 235.459 272.193 236.013 271.953 236.53L270.919 236.161C271.473 234.868 272.691 234.499 273.762 234.499C274.667 234.499 276.384 234.757 276.384 237.01V241.682H275.295V240.722H275.24C275.018 241.183 274.372 241.848 273.134 241.848ZM273.301 240.869C274.593 240.869 275.295 240.001 275.295 239.115V238.118C275.11 238.34 273.873 238.469 273.411 238.524C272.562 238.635 271.805 238.894 271.805 239.724C271.805 240.482 272.433 240.869 273.301 240.869Z" fill="#4767FE"/>
<path d="M278.373 241.682V234.591H279.426V235.699H279.518C279.813 234.942 280.497 234.499 281.42 234.499C282.352 234.499 282.971 234.942 283.322 235.699H283.396C283.76 234.965 284.504 234.499 285.519 234.499C286.784 234.499 287.68 235.27 287.68 236.936V241.682H286.59V236.936C286.59 235.888 285.926 235.477 285.15 235.477C284.153 235.477 283.58 236.151 283.58 237.065V241.682H282.472V236.825C282.472 236.017 281.895 235.477 281.069 235.477C280.22 235.477 279.463 236.211 279.463 237.25V241.682H278.373Z" fill="#4767FE"/>
<path d="M292.645 241.83C290.595 241.83 289.339 240.371 289.339 238.192C289.339 236.013 290.614 234.499 292.534 234.499C294.011 234.499 295.581 235.403 295.581 238.044V238.506H290.434C290.484 240.025 291.366 240.851 292.645 240.851C293.499 240.851 294.141 240.482 294.418 239.743L295.47 240.038C295.138 241.109 294.085 241.83 292.645 241.83ZM290.434 237.564H294.473C294.473 236.364 293.716 235.477 292.534 235.477C291.288 235.477 290.507 236.461 290.434 237.564Z" fill="#4767FE"/>
<path d="M300.322 234.591V235.514H298.808V239.651C298.808 240.574 299.27 240.722 299.75 240.722C299.99 240.722 300.137 240.685 300.23 240.666L300.451 241.645C300.304 241.7 300.045 241.774 299.639 241.774C298.716 241.774 297.718 241.183 297.718 239.946V235.514H296.647V234.591H297.718V232.892H298.808V234.591H300.322Z" fill="#4767FE"/>
<path d="M302.755 241.756C302.298 241.756 301.924 241.382 301.924 240.925C301.924 240.468 302.298 240.094 302.755 240.094C303.212 240.094 303.586 240.468 303.586 240.925C303.586 241.382 303.212 241.756 302.755 241.756Z" fill="#4767FE"/>
<path d="M306.335 241.756C305.878 241.756 305.504 241.382 305.504 240.925C305.504 240.468 305.878 240.094 306.335 240.094C306.792 240.094 307.166 240.468 307.166 240.925C307.166 241.382 306.792 241.756 306.335 241.756Z" fill="#4767FE"/>
<path d="M309.915 241.756C309.458 241.756 309.084 241.382 309.084 240.925C309.084 240.468 309.458 240.094 309.915 240.094C310.372 240.094 310.746 240.468 310.746 240.925C310.746 241.382 310.372 241.756 309.915 241.756Z" fill="#4767FE"/>
<path d="M70.5 205.432H368C372.142 205.432 375.5 208.79 375.5 212.932V263.341C375.5 267.483 372.142 270.841 368 270.841H78C73.8579 270.841 70.5 267.483 70.5 263.341V205.432Z" stroke="#95B1FF"/>
<path d="M391.144 30.1705H47.8562C43.7935 30.1705 40.5 33.5363 40.5 37.6881V303.653C40.5 307.805 43.7935 311.171 47.8562 311.171H391.144C395.207 311.171 398.5 307.805 398.5 303.653V37.6881C398.5 33.5363 395.207 30.1705 391.144 30.1705Z" stroke="#4767FE"/>
<path d="M217.667 77C217.667 75.5272 216.473 74.3333 215 74.3333C213.527 74.3333 212.333 75.5272 212.333 77C212.333 78.4727 213.527 79.6666 215 79.6666C216.473 79.6666 217.667 78.4727 217.667 77ZM414.5 76.5H215V77.5H414.5V76.5Z" fill="black"/>
<path d="M313.667 188C313.667 189.473 312.473 190.667 311 190.667C309.527 190.667 308.334 189.473 308.334 188C308.334 186.527 309.527 185.333 311 185.333C312.473 185.333 313.667 186.527 313.667 188ZM414.5 188.5H311V187.5H414.5V188.5Z" fill="#3C3C3C"/>
<path d="M228.652 188.276C228.5 189.74 227.189 190.805 225.724 190.652C224.259 190.5 223.195 189.189 223.347 187.724C223.5 186.259 224.811 185.195 226.275 185.348C227.74 185.5 228.804 186.811 228.652 188.276ZM255.5 161L255.163 160.631L255.306 160.5H255.5V161ZM414.5 161.5H255.5V160.5L414.5 160.5V161.5ZM255.838 161.369L226.337 188.369L225.662 187.631L255.163 160.631L255.838 161.369Z" fill="#3C3C3C"/>
<path d="M142.652 187.775C142.5 189.24 141.189 190.304 139.724 190.152C138.26 190 137.195 188.689 137.348 187.224C137.5 185.759 138.811 184.695 140.276 184.848C141.74 185 142.805 186.311 142.652 187.775ZM194.5 134L194.15 133.643L194.296 133.5H194.5V134ZM414.5 134.5H194.5V133.5L414.5 133.5V134.5ZM194.85 134.357L140.35 187.857L139.65 187.143L194.15 133.643L194.85 134.357Z" fill="#3C3C3C"/>
<path d="M423.949 81V71.9H425.249V79.83H430.124V81H423.949ZM434.266 81.13C433.109 81.13 432.173 80.35 432.173 79.206C432.173 77.789 433.343 77.269 434.474 77.178L436.333 77.022V76.814C436.333 75.943 435.813 75.384 434.968 75.384H434.903C434.149 75.384 433.603 75.8 433.538 76.411H432.303C432.407 75.228 433.434 74.37 434.929 74.37C436.593 74.37 437.542 75.358 437.542 76.775V79.57C437.542 79.96 437.542 80.545 437.607 81H436.463C436.411 80.753 436.398 80.402 436.385 80.077C436.073 80.649 435.267 81.13 434.266 81.13ZM433.395 79.128C433.395 79.7 433.85 80.116 434.474 80.116H434.565C435.41 80.116 436.333 79.427 436.333 78.517V77.958L434.669 78.101C433.98 78.153 433.395 78.504 433.395 79.128ZM440.046 83.366V82.313H441.84C442.321 82.313 442.451 82.183 442.451 81.702V80.662L439.669 74.5H441.047L443.036 79.154L445.012 74.5H446.364L443.647 80.61V81.975C443.647 82.911 443.166 83.366 442.204 83.366H440.046ZM451.065 81.13C449.245 81.13 447.932 79.739 447.932 77.75C447.932 75.761 449.245 74.37 451.065 74.37C452.885 74.37 454.198 75.761 454.198 77.75C454.198 79.739 452.885 81.13 451.065 81.13ZM451.13 80.116C452.17 80.116 452.95 79.232 452.95 77.75C452.95 76.268 452.17 75.384 451.13 75.384H451C449.96 75.384 449.18 76.268 449.18 77.75C449.18 79.232 449.96 80.116 451 80.116H451.13ZM458.561 81.13C457.079 81.13 456.338 80.129 456.338 78.725V74.5H457.573V78.504C457.573 79.557 458.015 80.116 458.86 80.116H458.977C459.822 80.116 460.602 79.284 460.602 78.062V74.5H461.837V81H460.602V79.908C460.238 80.662 459.51 81.13 458.561 81.13ZM467.63 81C466.668 81 466.187 80.558 466.187 79.596V75.514H464.081V74.5H466.187V72.394H467.422V74.5H469.801V75.514H467.422V79.349C467.422 79.83 467.552 79.96 468.033 79.96H470.087V81H467.63ZM480.58 81V71.9H486.313V73.07H481.88V75.995H485.923V77.165H481.88V81H480.58ZM489.35 81V74.5H490.546V75.722C490.767 74.968 491.365 74.435 492.639 74.435H494.043V75.54H492.574C491.248 75.54 490.585 76.385 490.585 77.789V81H489.35ZM499.394 81.13C497.574 81.13 496.261 79.739 496.261 77.75C496.261 75.761 497.574 74.37 499.394 74.37C501.214 74.37 502.527 75.761 502.527 77.75C502.527 79.739 501.214 81.13 499.394 81.13ZM499.459 80.116C500.499 80.116 501.279 79.232 501.279 77.75C501.279 76.268 500.499 75.384 499.459 75.384H499.329C498.289 75.384 497.509 76.268 497.509 77.75C497.509 79.232 498.289 80.116 499.329 80.116H499.459ZM504.329 81V74.5H505.46V75.15C505.681 74.747 506.071 74.37 506.682 74.37C507.202 74.37 507.631 74.63 507.865 75.137C508.138 74.721 508.554 74.37 509.204 74.37C509.997 74.37 510.621 74.955 510.621 76.099V81H509.477V76.385C509.477 75.813 509.334 75.41 508.918 75.41H508.892C508.346 75.41 508.06 76.06 508.06 76.814V81H506.903V76.385C506.903 75.813 506.76 75.41 506.344 75.41H506.331C505.772 75.41 505.486 76.06 505.486 76.814V81H504.329ZM522.909 81V73.07H520.322V71.9H526.796V73.07H524.209V81H522.909ZM528.832 81V71.9H530.067V75.527C530.483 74.812 531.263 74.37 532.225 74.37C533.733 74.37 534.461 75.371 534.461 76.775V81H533.226V76.996C533.226 75.943 532.771 75.384 531.913 75.384H531.796C530.899 75.384 530.067 76.216 530.067 77.438V81H528.832ZM539.773 81.13C538.148 81.13 536.783 79.934 536.783 77.737C536.783 75.618 538.083 74.37 539.786 74.37C541.541 74.37 542.555 75.709 542.555 77.464L542.542 78.036H537.992C538.018 79.362 538.798 80.116 539.773 80.116H539.851C540.566 80.116 541.112 79.726 541.307 79.05H542.529C542.23 80.337 541.229 81.13 539.773 81.13ZM538.005 77.061H541.346C541.307 76.164 540.761 75.384 539.799 75.384H539.695C538.941 75.384 538.148 75.865 538.005 77.061ZM552.737 81V71.9H554.037V75.865H557.521V71.9H558.821V81H557.521V77.035H554.037V81H552.737ZM563.834 81.13C562.014 81.13 560.701 79.739 560.701 77.75C560.701 75.761 562.014 74.37 563.834 74.37C565.654 74.37 566.967 75.761 566.967 77.75C566.967 79.739 565.654 81.13 563.834 81.13ZM563.899 80.116C564.939 80.116 565.719 79.232 565.719 77.75C565.719 76.268 564.939 75.384 563.899 75.384H563.769C562.729 75.384 561.949 76.268 561.949 77.75C561.949 79.232 562.729 80.116 563.769 80.116H563.899ZM571.928 81.13C570.212 81.13 569.263 80.259 569.237 78.959H570.485C570.537 79.713 571.109 80.142 571.889 80.142H572.006C572.747 80.142 573.202 79.791 573.202 79.219C573.202 78.79 572.968 78.53 572.279 78.387L571.382 78.179C570.212 77.919 569.497 77.399 569.497 76.32C569.497 75.124 570.55 74.37 571.954 74.37C573.631 74.37 574.463 75.306 574.502 76.541H573.267C573.189 75.865 572.734 75.358 571.993 75.358H571.876C571.174 75.358 570.732 75.761 570.732 76.281C570.732 76.697 571.057 76.957 571.746 77.113L572.695 77.334C573.774 77.581 574.424 78.088 574.437 79.154C574.437 80.337 573.501 81.13 571.928 81.13ZM580.399 81C579.437 81 578.956 80.558 578.956 79.596V75.514H576.85V74.5H578.956V72.394H580.191V74.5H582.57V75.514H580.191V79.349C580.191 79.83 580.321 79.96 580.802 79.96H582.856V81H580.399ZM592.426 81L595.26 71.9H596.898L599.693 81H598.354L597.652 78.66H594.428L593.726 81H592.426ZM594.779 77.49H597.314L596.04 73.252L594.779 77.49ZM601.274 83.6V74.5H602.509V75.449C602.834 74.851 603.666 74.37 604.537 74.37C606.318 74.37 607.436 75.826 607.436 77.75C607.436 79.674 606.318 81.13 604.537 81.13C603.666 81.13 602.834 80.649 602.509 80.051V83.6H601.274ZM604.394 80.116C605.538 80.116 606.188 79.076 606.188 77.75C606.188 76.424 605.538 75.384 604.394 75.384H604.316C603.198 75.384 602.509 76.424 602.509 77.75C602.509 79.076 603.198 80.116 604.316 80.116H604.394ZM609.329 83.6V74.5H610.564V75.449C610.889 74.851 611.721 74.37 612.592 74.37C614.373 74.37 615.491 75.826 615.491 77.75C615.491 79.674 614.373 81.13 612.592 81.13C611.721 81.13 610.889 80.649 610.564 80.051V83.6H609.329ZM612.449 80.116C613.593 80.116 614.243 79.076 614.243 77.75C614.243 76.424 613.593 75.384 612.449 75.384H612.371C611.253 75.384 610.564 76.424 610.564 77.75C610.564 79.076 611.253 80.116 612.371 80.116H612.449ZM617.319 81V79.986H619.685V72.914H617.657V71.9H620.92V79.986H623.221V81H617.319ZM627.792 73.564V71.965H629.3V73.564H627.792ZM625.569 81V79.986H627.935V75.514H625.829V74.5H629.17V79.986H631.471V81H625.569ZM636.497 81.13C634.651 81.13 633.442 79.739 633.442 77.75C633.442 75.761 634.651 74.37 636.497 74.37C638.031 74.37 639.084 75.189 639.214 76.671H637.979C637.849 75.904 637.342 75.384 636.549 75.384H636.445C635.223 75.384 634.677 76.476 634.677 77.75C634.677 79.024 635.223 80.116 636.445 80.116H636.549C637.342 80.116 637.836 79.57 637.979 78.829H639.214C639.019 80.298 638.031 81.13 636.497 81.13ZM643.694 81.13C642.537 81.13 641.601 80.35 641.601 79.206C641.601 77.789 642.771 77.269 643.902 77.178L645.761 77.022V76.814C645.761 75.943 645.241 75.384 644.396 75.384H644.331C643.577 75.384 643.031 75.8 642.966 76.411H641.731C641.835 75.228 642.862 74.37 644.357 74.37C646.021 74.37 646.97 75.358 646.97 76.775V79.57C646.97 79.96 646.97 80.545 647.035 81H645.891C645.839 80.753 645.826 80.402 645.813 80.077C645.501 80.649 644.695 81.13 643.694 81.13ZM642.823 79.128C642.823 79.7 643.278 80.116 643.902 80.116H643.993C644.838 80.116 645.761 79.427 645.761 78.517V77.958L644.097 78.101C643.408 78.153 642.823 78.504 642.823 79.128ZM652.893 81C651.931 81 651.45 80.558 651.45 79.596V75.514H649.344V74.5H651.45V72.394H652.685V74.5H655.064V75.514H652.685V79.349C652.685 79.83 652.815 79.96 653.296 79.96H655.35V81H652.893ZM660.012 73.564V71.965H661.52V73.564H660.012ZM657.789 81V79.986H660.155V75.514H658.049V74.5H661.39V79.986H663.691V81H657.789ZM668.548 81.13C666.728 81.13 665.415 79.739 665.415 77.75C665.415 75.761 666.728 74.37 668.548 74.37C670.368 74.37 671.681 75.761 671.681 77.75C671.681 79.739 670.368 81.13 668.548 81.13ZM668.613 80.116C669.653 80.116 670.433 79.232 670.433 77.75C670.433 76.268 669.653 75.384 668.613 75.384H668.483C667.443 75.384 666.663 76.268 666.663 77.75C666.663 79.232 667.443 80.116 668.483 80.116H668.613ZM673.821 81V74.5H675.056V75.527C675.433 74.838 676.226 74.37 677.188 74.37C678.605 74.37 679.45 75.293 679.45 76.788V81H678.215V77.022C678.215 75.93 677.76 75.384 676.902 75.384H676.811C675.693 75.384 675.056 76.411 675.056 77.581V81H673.821Z" fill="black"/>
<path d="M423.949 138V128.9H425.249V136.83H430.124V138H423.949ZM434.955 138.13C433.135 138.13 431.822 136.739 431.822 134.75C431.822 132.761 433.135 131.37 434.955 131.37C436.775 131.37 438.088 132.761 438.088 134.75C438.088 136.739 436.775 138.13 434.955 138.13ZM435.02 137.116C436.06 137.116 436.84 136.232 436.84 134.75C436.84 133.268 436.06 132.384 435.02 132.384H434.89C433.85 132.384 433.07 133.268 433.07 134.75C433.07 136.232 433.85 137.116 434.89 137.116H435.02ZM443.179 138.13C441.333 138.13 440.124 136.739 440.124 134.75C440.124 132.761 441.333 131.37 443.179 131.37C444.713 131.37 445.766 132.189 445.896 133.671H444.661C444.531 132.904 444.024 132.384 443.231 132.384H443.127C441.905 132.384 441.359 133.476 441.359 134.75C441.359 136.024 441.905 137.116 443.127 137.116H443.231C444.024 137.116 444.518 136.57 444.661 135.829H445.896C445.701 137.298 444.713 138.13 443.179 138.13ZM450.376 138.13C449.219 138.13 448.283 137.35 448.283 136.206C448.283 134.789 449.453 134.269 450.584 134.178L452.443 134.022V133.814C452.443 132.943 451.923 132.384 451.078 132.384H451.013C450.259 132.384 449.713 132.8 449.648 133.411H448.413C448.517 132.228 449.544 131.37 451.039 131.37C452.703 131.37 453.652 132.358 453.652 133.775V136.57C453.652 136.96 453.652 137.545 453.717 138H452.573C452.521 137.753 452.508 137.402 452.495 137.077C452.183 137.649 451.377 138.13 450.376 138.13ZM449.505 136.128C449.505 136.7 449.96 137.116 450.584 137.116H450.675C451.52 137.116 452.443 136.427 452.443 135.517V134.958L450.779 135.101C450.09 135.153 449.505 135.504 449.505 136.128ZM456.221 138V136.986H458.587V129.914H456.559V128.9H459.822V136.986H462.123V138H456.221ZM472.11 138V128.9H473.683L475.23 134.165L476.777 128.9H478.363V138H477.154V131.097L475.854 135.517H474.606L473.306 131.097V138H472.11ZM483.284 138.13C481.464 138.13 480.151 136.739 480.151 134.75C480.151 132.761 481.464 131.37 483.284 131.37C485.104 131.37 486.417 132.761 486.417 134.75C486.417 136.739 485.104 138.13 483.284 138.13ZM483.349 137.116C484.389 137.116 485.169 136.232 485.169 134.75C485.169 133.268 484.389 132.384 483.349 132.384H483.219C482.179 132.384 481.399 133.268 481.399 134.75C481.399 136.232 482.179 137.116 483.219 137.116H483.349ZM490.91 138.13C489.129 138.13 488.011 136.674 488.011 134.75C488.011 132.826 489.129 131.37 490.91 131.37C491.781 131.37 492.613 131.851 492.938 132.449V128.9H494.173V138H492.938V137.051C492.613 137.649 491.781 138.13 490.91 138.13ZM491.131 137.116C492.249 137.116 492.938 136.076 492.938 134.75C492.938 133.424 492.249 132.384 491.131 132.384H491.053C489.909 132.384 489.259 133.424 489.259 134.75C489.259 136.076 489.909 137.116 491.053 137.116H491.131ZM498.835 138.13C497.353 138.13 496.612 137.129 496.612 135.725V131.5H497.847V135.504C497.847 136.557 498.289 137.116 499.134 137.116H499.251C500.096 137.116 500.876 136.284 500.876 135.062V131.5H502.111V138H500.876V136.908C500.512 137.662 499.784 138.13 498.835 138.13ZM504.55 138V136.986H506.916V129.914H504.888V128.9H508.151V136.986H510.452V138H504.55ZM515.608 138.13C513.983 138.13 512.618 136.934 512.618 134.737C512.618 132.618 513.918 131.37 515.621 131.37C517.376 131.37 518.39 132.709 518.39 134.464L518.377 135.036H513.827C513.853 136.362 514.633 137.116 515.608 137.116H515.686C516.401 137.116 516.947 136.726 517.142 136.05H518.364C518.065 137.337 517.064 138.13 515.608 138.13ZM513.84 134.061H517.181C517.142 133.164 516.596 132.384 515.634 132.384H515.53C514.776 132.384 513.983 132.865 513.84 134.061ZM528.754 138V136.843H531.406V130.733L529.3 132.748V131.175L531.64 128.9H532.628V136.843H535.163V138H528.754Z" fill="black"/>
<path d="M423.949 165V155.9H425.249V163.83H430.124V165H423.949ZM434.955 165.13C433.135 165.13 431.822 163.739 431.822 161.75C431.822 159.761 433.135 158.37 434.955 158.37C436.775 158.37 438.088 159.761 438.088 161.75C438.088 163.739 436.775 165.13 434.955 165.13ZM435.02 164.116C436.06 164.116 436.84 163.232 436.84 161.75C436.84 160.268 436.06 159.384 435.02 159.384H434.89C433.85 159.384 433.07 160.268 433.07 161.75C433.07 163.232 433.85 164.116 434.89 164.116H435.02ZM443.179 165.13C441.333 165.13 440.124 163.739 440.124 161.75C440.124 159.761 441.333 158.37 443.179 158.37C444.713 158.37 445.766 159.189 445.896 160.671H444.661C444.531 159.904 444.024 159.384 443.231 159.384H443.127C441.905 159.384 441.359 160.476 441.359 161.75C441.359 163.024 441.905 164.116 443.127 164.116H443.231C444.024 164.116 444.518 163.57 444.661 162.829H445.896C445.701 164.298 444.713 165.13 443.179 165.13ZM450.376 165.13C449.219 165.13 448.283 164.35 448.283 163.206C448.283 161.789 449.453 161.269 450.584 161.178L452.443 161.022V160.814C452.443 159.943 451.923 159.384 451.078 159.384H451.013C450.259 159.384 449.713 159.8 449.648 160.411H448.413C448.517 159.228 449.544 158.37 451.039 158.37C452.703 158.37 453.652 159.358 453.652 160.775V163.57C453.652 163.96 453.652 164.545 453.717 165H452.573C452.521 164.753 452.508 164.402 452.495 164.077C452.183 164.649 451.377 165.13 450.376 165.13ZM449.505 163.128C449.505 163.7 449.96 164.116 450.584 164.116H450.675C451.52 164.116 452.443 163.427 452.443 162.517V161.958L450.779 162.101C450.09 162.153 449.505 162.504 449.505 163.128ZM456.221 165V163.986H458.587V156.914H456.559V155.9H459.822V163.986H462.123V165H456.221ZM472.11 165V155.9H473.683L475.23 161.165L476.777 155.9H478.363V165H477.154V158.097L475.854 162.517H474.606L473.306 158.097V165H472.11ZM483.284 165.13C481.464 165.13 480.151 163.739 480.151 161.75C480.151 159.761 481.464 158.37 483.284 158.37C485.104 158.37 486.417 159.761 486.417 161.75C486.417 163.739 485.104 165.13 483.284 165.13ZM483.349 164.116C484.389 164.116 485.169 163.232 485.169 161.75C485.169 160.268 484.389 159.384 483.349 159.384H483.219C482.179 159.384 481.399 160.268 481.399 161.75C481.399 163.232 482.179 164.116 483.219 164.116H483.349ZM490.91 165.13C489.129 165.13 488.011 163.674 488.011 161.75C488.011 159.826 489.129 158.37 490.91 158.37C491.781 158.37 492.613 158.851 492.938 159.449V155.9H494.173V165H492.938V164.051C492.613 164.649 491.781 165.13 490.91 165.13ZM491.131 164.116C492.249 164.116 492.938 163.076 492.938 161.75C492.938 160.424 492.249 159.384 491.131 159.384H491.053C489.909 159.384 489.259 160.424 489.259 161.75C489.259 163.076 489.909 164.116 491.053 164.116H491.131ZM498.835 165.13C497.353 165.13 496.612 164.129 496.612 162.725V158.5H497.847V162.504C497.847 163.557 498.289 164.116 499.134 164.116H499.251C500.096 164.116 500.876 163.284 500.876 162.062V158.5H502.111V165H500.876V163.908C500.512 164.662 499.784 165.13 498.835 165.13ZM504.55 165V163.986H506.916V156.914H504.888V155.9H508.151V163.986H510.452V165H504.55ZM515.608 165.13C513.983 165.13 512.618 163.934 512.618 161.737C512.618 159.618 513.918 158.37 515.621 158.37C517.376 158.37 518.39 159.709 518.39 161.464L518.377 162.036H513.827C513.853 163.362 514.633 164.116 515.608 164.116H515.686C516.401 164.116 516.947 163.726 517.142 163.05H518.364C518.065 164.337 517.064 165.13 515.608 165.13ZM513.84 161.061H517.181C517.142 160.164 516.596 159.384 515.634 159.384H515.53C514.776 159.384 513.983 159.865 513.84 161.061ZM528.598 165V163.778L531.991 160.45C533.044 159.423 533.317 159.02 533.317 158.344C533.317 157.551 532.667 156.914 531.77 156.914H531.64C530.652 156.914 529.989 157.577 529.963 158.643H528.689C528.689 156.901 529.937 155.77 531.692 155.77C533.421 155.77 534.591 156.836 534.591 158.305C534.591 159.449 534.032 160.112 533.07 161.048L530.197 163.843H534.721V165H528.598Z" fill="black"/>
<path d="M423.949 192V182.9H425.249V190.83H430.124V192H423.949ZM434.955 192.13C433.135 192.13 431.822 190.739 431.822 188.75C431.822 186.761 433.135 185.37 434.955 185.37C436.775 185.37 438.088 186.761 438.088 188.75C438.088 190.739 436.775 192.13 434.955 192.13ZM435.02 191.116C436.06 191.116 436.84 190.232 436.84 188.75C436.84 187.268 436.06 186.384 435.02 186.384H434.89C433.85 186.384 433.07 187.268 433.07 188.75C433.07 190.232 433.85 191.116 434.89 191.116H435.02ZM443.179 192.13C441.333 192.13 440.124 190.739 440.124 188.75C440.124 186.761 441.333 185.37 443.179 185.37C444.713 185.37 445.766 186.189 445.896 187.671H444.661C444.531 186.904 444.024 186.384 443.231 186.384H443.127C441.905 186.384 441.359 187.476 441.359 188.75C441.359 190.024 441.905 191.116 443.127 191.116H443.231C444.024 191.116 444.518 190.57 444.661 189.829H445.896C445.701 191.298 444.713 192.13 443.179 192.13ZM450.376 192.13C449.219 192.13 448.283 191.35 448.283 190.206C448.283 188.789 449.453 188.269 450.584 188.178L452.443 188.022V187.814C452.443 186.943 451.923 186.384 451.078 186.384H451.013C450.259 186.384 449.713 186.8 449.648 187.411H448.413C448.517 186.228 449.544 185.37 451.039 185.37C452.703 185.37 453.652 186.358 453.652 187.775V190.57C453.652 190.96 453.652 191.545 453.717 192H452.573C452.521 191.753 452.508 191.402 452.495 191.077C452.183 191.649 451.377 192.13 450.376 192.13ZM449.505 190.128C449.505 190.7 449.96 191.116 450.584 191.116H450.675C451.52 191.116 452.443 190.427 452.443 189.517V188.958L450.779 189.101C450.09 189.153 449.505 189.504 449.505 190.128ZM456.221 192V190.986H458.587V183.914H456.559V182.9H459.822V190.986H462.123V192H456.221ZM472.11 192V182.9H473.683L475.23 188.165L476.777 182.9H478.363V192H477.154V185.097L475.854 189.517H474.606L473.306 185.097V192H472.11ZM483.284 192.13C481.464 192.13 480.151 190.739 480.151 188.75C480.151 186.761 481.464 185.37 483.284 185.37C485.104 185.37 486.417 186.761 486.417 188.75C486.417 190.739 485.104 192.13 483.284 192.13ZM483.349 191.116C484.389 191.116 485.169 190.232 485.169 188.75C485.169 187.268 484.389 186.384 483.349 186.384H483.219C482.179 186.384 481.399 187.268 481.399 188.75C481.399 190.232 482.179 191.116 483.219 191.116H483.349ZM490.91 192.13C489.129 192.13 488.011 190.674 488.011 188.75C488.011 186.826 489.129 185.37 490.91 185.37C491.781 185.37 492.613 185.851 492.938 186.449V182.9H494.173V192H492.938V191.051C492.613 191.649 491.781 192.13 490.91 192.13ZM491.131 191.116C492.249 191.116 492.938 190.076 492.938 188.75C492.938 187.424 492.249 186.384 491.131 186.384H491.053C489.909 186.384 489.259 187.424 489.259 188.75C489.259 190.076 489.909 191.116 491.053 191.116H491.131ZM498.835 192.13C497.353 192.13 496.612 191.129 496.612 189.725V185.5H497.847V189.504C497.847 190.557 498.289 191.116 499.134 191.116H499.251C500.096 191.116 500.876 190.284 500.876 189.062V185.5H502.111V192H500.876V190.908C500.512 191.662 499.784 192.13 498.835 192.13ZM504.55 192V190.986H506.916V183.914H504.888V182.9H508.151V190.986H510.452V192H504.55ZM515.608 192.13C513.983 192.13 512.618 190.934 512.618 188.737C512.618 186.618 513.918 185.37 515.621 185.37C517.376 185.37 518.39 186.709 518.39 188.464L518.377 189.036H513.827C513.853 190.362 514.633 191.116 515.608 191.116H515.686C516.401 191.116 516.947 190.726 517.142 190.05H518.364C518.065 191.337 517.064 192.13 515.608 192.13ZM513.84 188.061H517.181C517.142 187.164 516.596 186.384 515.634 186.384H515.53C514.776 186.384 513.983 186.865 513.84 188.061ZM531.575 192.13C529.755 192.13 528.585 191.194 528.494 189.595H529.768C529.898 190.453 530.522 190.986 531.51 190.986H531.64C532.719 190.986 533.421 190.362 533.421 189.478C533.421 188.555 532.654 188.035 531.614 188.035H531.016V186.878H531.653C532.693 186.878 533.369 186.254 533.369 185.396C533.369 184.499 532.641 183.914 531.679 183.914H531.549C530.678 183.914 530.015 184.486 529.937 185.331H528.663C528.702 183.849 529.937 182.77 531.614 182.77C533.395 182.77 534.643 183.784 534.643 185.279C534.643 186.306 533.993 187.125 533.096 187.437C533.993 187.697 534.708 188.464 534.708 189.556C534.708 191.246 533.291 192.13 531.575 192.13Z" fill="black"/>
</g>
<defs>
<clipPath id="clip0_1_2">
<rect width="694" height="342" fill="white"/>
</clipPath>
</defs>
</svg>
